# xmcd
#
# Track frame offsets:
#	150
#	14071
#	25197
#	36070
#	44407
#	59318
#	73257
#	84974
#	101406
#	112236
#	126289
#	139100
#	150649
#	165510
#	184394
#	191944
#	202678
#	212638
#	240232
#
# Disc length: 4216 seconds
#
# Revision: 2
# Processed by: cddbd v1.5.1PL2 Copyright (c) Steve Scherf et al.
# Submitted via: audiograbber 1.81.02
#
DISCID=0b107613
DTITLE=Norbert Binder - weil du gott wertvoll bist (www.gerth.de)
DYEAR=2006
DGENRE=Gospel
TTITLE0=Schön, dass du da bist
TTITLE1=Für welche Seite singst du denn?
TTITLE2=Ich seh' nichts
TTITLE3=Wenn Gott sagt: Geh
TTITLE4=Ich bin von innen, außen, oben, unten
TTITLE5=Ich bin dein Kind
TTITLE6=Wir werden die Sieger sein
TTITLE7=Für immer will ich dir von Herzen danken
TTITLE8=Wir werfen uns're Segen
TTITLE9=Du bist 5, 4, 3, 2, einzigartig
TTITLE10=Dies ist der Anpfiff
TTITLE11=Bei Gott steht alles auf dem Kopf
TTITLE12=Manchmal bin ich traurig
TTITLE13=Du kannst Wunder tun
TTITLE14=G O T T
TTITLE15=Ich ruf bei Jesus an
TTITLE16=Nichts kann uns trennen
TTITLE17=Denn dein Herz schläg für mich
TTITLE18=Daten-CD
EXTD=
EXTT0=
EXTT1=
EXTT2=
EXTT3=
EXTT4=
EXTT5=
EXTT6=
EXTT7=
EXTT8=
EXTT9=
EXTT10=
EXTT11=
EXTT12=
EXTT13=
EXTT14=
EXTT15=
EXTT16=
EXTT17=
EXTT18=
PLAYORDER=
